<?xml version="1.0" encoding="utf-8"?>
<!-- Generator: Adobe Illustrator 24.3.0, SVG Export Plug-In . SVG Version: 6.00 Build 0)  -->
<svg version="1.1" id="Layer_1" xmlns="http://www.w3.org/2000/svg" xmlns:xlink="http://www.w3.org/1999/xlink" x="0px" y="0px"
	 viewBox="0 0 1865 257.5" style="enable-background:new 0 0 1865 257.5;" xml:space="preserve">
<style type="text/css">
	.st0{fill:#21ADE3;}
	.st1{fill:none;stroke:#7F3F98;stroke-width:30;stroke-miterlimit:10;}
	.st2{fill:none;}
	.st3{fill:#FFFFFF;}
	.st4{font-family:'MyriadPro-Bold';}
	.st5{font-size:28px;}
	.st6{font-size:26px;}
</style>
<g>
	<g>
		<circle class="st0" cx="124.5" cy="132.5" r="124.5"/>
	</g>
	<g>
		<line class="st1" x1="327" y1="83" x2="327" y2="183"/>
		<line class="st1" x1="277" y1="132.3" x2="377" y2="132.3"/>
	</g>
	<rect x="27" y="89.5" class="st2" width="196" height="135.5"/>
	<text transform="matrix(1 0 0 1 45.2646 109.373)"><tspan x="0" y="0" class="st3 st4 st5">Best Practice </tspan><tspan x="18.9" y="33.6" class="st3 st4 st5">Processes </tspan><tspan x="47" y="67.2" class="st3 st4 st5">BMW</tspan></text>
	<g>
		<circle class="st0" cx="529.3" cy="133" r="124.5"/>
	</g>
	<g>
		<line class="st1" x1="731.8" y1="83.5" x2="731.8" y2="183.5"/>
		<line class="st1" x1="681.8" y1="132.8" x2="781.8" y2="132.8"/>
	</g>
	<g>
		<circle class="st0" cx="929.1" cy="132.4" r="124.5"/>
	</g>
	<g>
		<line class="st1" x1="1131.6" y1="82.9" x2="1131.6" y2="182.9"/>
		<line class="st1" x1="1081.6" y1="132.2" x2="1181.6" y2="132.2"/>
	</g>
	<rect x="831.6" y="89.4" class="st2" width="196" height="135.5"/>
	<text transform="matrix(1 0 0 1 863.5111 109.2982)"><tspan x="0" y="0" class="st3 st4 st5">Alignment </tspan><tspan x="-18.7" y="33.6" class="st3 st4 st5">of the organi</tspan><tspan x="141.8" y="33.6" class="st3 st4 st5">-</tspan><tspan x="26.8" y="67.2" class="st3 st4 st5">zation</tspan></text>
	<rect x="413.5" y="82.4" class="st2" width="224.5" height="135.5"/>
	<text transform="matrix(1 0 0 1 472.2013 100.9074)"><tspan x="0" y="0" class="st3 st4 st6">Standard </tspan><tspan x="-27.3" y="31.2" class="st3 st4 st6">Dynamics 365 </tspan><tspan x="-5.6" y="62.4" class="st3 st4 st6">+ Industry </tspan><tspan x="-9.3" y="93.6" class="st3 st4 st6">Extensions</tspan></text>
	<g>
		<circle class="st0" cx="1334.5" cy="124.9" r="124.5"/>
	</g>
	<g>
		<line class="st1" x1="1588" y1="100" x2="1488" y2="100"/>
		<line class="st1" x1="1487" y1="150.7" x2="1587" y2="150.7"/>
	</g>
	<rect x="1237" y="81.9" class="st2" width="196" height="135.5"/>
	<text transform="matrix(1 0 0 1 1279.9161 101.7958)"><tspan x="0" y="0" class="st3 st4 st5">Focus on</tspan><tspan x="7.4" y="33.6" class="st3 st4 st5">Change</tspan><tspan x="-28.1" y="67.2" class="st3 st4 st5">Management</tspan></text>
	<g>
		<circle class="st0" cx="1740.5" cy="124.5" r="124.5"/>
	</g>
	<rect x="1616" y="31" class="st2" width="249" height="203"/>
	<text transform="matrix(1 0 0 1 1674.939 50.8799)"><tspan x="0" y="0" class="st3 st4 st5">Optimized</tspan><tspan x="-14.2" y="33.6" class="st3 st4 st5">Best Practice</tspan><tspan x="-20" y="67.2" class="st3 st4 st5">and Business-</tspan><tspan x="17.7" y="100.8" class="st3 st4 st5">adriven</tspan><tspan x="-15.3" y="134.4" class="st3 st4 st5">Technoklogy</tspan><tspan x="12.7" y="168" class="st3 st4 st5">Solution</tspan></text>
</g>
</svg>
